HIERARCHY
ROOT Hips
{
  OFFSET -32.5998 29.0326 120.673
  CHANNELS 6 Xposition Yposition Zposition Zrotation Xrotation Yrotation
  JOINT LeftUpLeg
  {
    OFFSET 8.64259 1.95398 -2.38835
    CHANNELS 3 Zrotation Xrotation Yrotation
    JOINT LeftLeg
    {
      OFFSET 43.7702 0 0
      CHANNELS 3 Zrotation Xrotation Yrotation
      JOINT LeftFoot
      {
        OFFSET 40.6238 0 0
        CHANNELS 3 Zrotation Xrotation Yrotation
        JOINT LeftToeBase
        {
          OFFSET 12.7242 0 0
          CHANNELS 3 Zrotation Xrotation Yrotation
          End Site
          {
            OFFSET 0 0 0
          }
        }
      }
    }
  }
  JOINT RightUpLeg
  {
    OFFSET -8.2249 1.95398 -2.59336
    CHANNELS 3 Zrotation Xrotation Yrotation
    JOINT RightLeg
    {
      OFFSET 43.5653 0 0
      CHANNELS 3 Zrotation Xrotation Yrotation
      JOINT RightFoot
      {
        OFFSET 40.6238 0 0
        CHANNELS 3 Zrotation Xrotation Yrotation
        JOINT RightToeBase
        {
          OFFSET 12.7242 0 0
          CHANNELS 3 Zrotation Xrotation Yrotation
          End Site
          {
            OFFSET 0 0 0
          }
        }
      }
    }
  }
  JOINT Spine
  {
    OFFSET 0.165834 0.87714 6.61349
    CHANNELS 3 Zrotation Xrotation Yrotation
    JOINT Spine1
    {
      OFFSET 7.38963 1.71661e-005 0
      CHANNELS 3 Zrotation Xrotation Yrotation
      JOINT Spine2
      {
        OFFSET 11.9445 1.14441e-005 0
        CHANNELS 3 Zrotation Xrotation Yrotation
        JOINT Spine3
        {
          OFFSET 14.7254 4.19617e-005 0
          CHANNELS 3 Zrotation Xrotation Yrotation
          JOINT Spine4
          {
            OFFSET 10.9679 0 0
            CHANNELS 3 Zrotation Xrotation Yrotation
            JOINT RightShoulder
            {
              OFFSET 2.46616 -1.6653 3.69651
              CHANNELS 3 Zrotation Xrotation Yrotation
              JOINT RightArm
              {
                OFFSET 13.0012 0 0
                CHANNELS 3 Zrotation Xrotation Yrotation
                JOINT RightForeArm
                {
                  OFFSET 28.7848 1.62311e-005 0
                  CHANNELS 3 Zrotation Xrotation Yrotation
                  JOINT RightHand
                  {
                    OFFSET 26.5688 1.62095e-005 0
                    CHANNELS 3 Zrotation Xrotation Yrotation
                    End Site
                    {
                      OFFSET 0 0 0
                    }
                  }
                }
              }
            }
            JOINT LeftShoulder
            {
              OFFSET 2.38034 -1.29275 -3.7523
              CHANNELS 3 Zrotation Xrotation Yrotation
              JOINT LeftArm
              {
                OFFSET 16.3182 6.07031e-005 0
                CHANNELS 3 Zrotation Xrotation Yrotation
                JOINT LeftForeArm
                {
                  OFFSET 27.0901 0 0
                  CHANNELS 3 Zrotation Xrotation Yrotation
                  JOINT LeftHand
                  {
                    OFFSET 24.5451 1.51738e-005 0
                    CHANNELS 3 Zrotation Xrotation Yrotation
                    End Site
                    {
                      OFFSET 0 0 0
                    }
                  }
                }
              }
            }
            JOINT Neck
            {
              OFFSET 5.0226 -0.0266342 0
              CHANNELS 3 Zrotation Xrotation Yrotation
              JOINT Head
              {
                OFFSET 6.69364 2.86102e-005 0
                CHANNELS 3 Zrotation Xrotation Yrotation
                End Site
                {
                  OFFSET 0 0 0
                }
              }
            }
          }
        }
      }
    }
  }
}
MOTION
Frames:	7
Frame Time:	0.0416667
-209.04 94.0303 192.506 -96.7465 -43.2218 -95.3702 -176.052 23.8283 89.2429 -20.2615 10.4132 -1.15828 65.8511 3.18547 0.478919 8.41856 -14.1976 7.64695 174.696 -5.28328 90.1271 -30.8879 -20.2138 -3.52872 81.1191 -14.9614 -2.97102 31.3984 -2.12793 4.44262 1.20082 7.59749 -90.1411 11.6863 2.32231 -0.524194 0.0172897 2.297 -0.62595 -22.5345 2.37241 0.198386 -2.52189 2.37243 0.198388 93.1541 -22.4672 -102.93 36.2301 -15.5567 -10.5483 -18.115 -15.949 -31.0486 -9.95318 -0.118042 -3.98084 -85.7557 -56.0751 85.9204 -17.0152 9.9652 0.783739 6.45682 -13.0506 -23.2241 -1.35055 -0.0663784 -1.66351 -1.50676 -1.01018 4.75489 -15.2796 -0.659668 -9.09826 
-204.97 95.7146 186.664 -99.7146 -48.5469 -98.9411 -174.1 24.4478 87.1696 -32.4826 0.122691 -2.04181 68.0025 3.94029 -0.245754 7.42415 -13.9031 6.39539 174.126 -2.53186 90.7281 -29.9283 -16.7867 -2.18195 77.702 -11.9976 -2.96311 28.623 -0.959207 4.21431 0.274228 7.89459 -90.3146 11.0857 0.400011 -0.664114 -0.585325 0.370401 -0.681082 -23.1202 0.581101 -0.513185 -3.10751 0.58111 -0.513187 93.1425 -23.3234 -102.643 36.9473 -11.9014 -5.6122 -16.674 -13.6325 -30.0134 -12.57 -0.235137 -3.09015 -87.3741 -50.6498 82.7792 -15.4597 10.6572 -10.0852 11.1336 -4.66454 -27.5492 -0.417192 -0.0561503 -2.53493 -3.96273 0.548413 2.4221 -13.281 0.373163 -1.03826 
-201.695 96.9632 182.321 -100.592 -50.6012 -100.074 -173.109 23.2541 88.0452 -52.5957 7.57257 -0.633352 67.2963 3.11571 1.60722 4.28628 -15.208 5.67497 173.758 -0.345723 89.9259 -27.1389 -16.5212 -1.34616 73.9779 -9.15405 -2.48634 26.8477 -0.342641 4.62117 -0.258966 7.89698 -90.5386 11.0754 -0.765288 -0.996499 -0.595673 -0.80839 -0.961851 -23.1288 -0.430434 -1.1804 -3.11613 -0.430422 -1.1804 93.5791 -24.7282 -101.193 38.5778 -9.5336 0.107636 -14.7868 -12.1549 -26.6516 -11.6967 -0.307146 -2.21384 -86.97 -45.95 82.5777 -14.3803 11.3412 -21.1795 12.6131 -2.87432 -30.6187 -1.0461 -0.0968044 -4.72816 -6.47358 1.75527 1.80996 -14.19 1.37373 2.44179 
-198.769 97.2291 178.997 -101.067 -49.6038 -99.6362 -172.806 14.2991 90.2557 -61.1086 11.1204 1.37896 64.263 1.17326 2.01649 5.66604 -13.3722 4.23844 174.246 2.10777 91.284 -27.0501 -17.3673 -1.07934 72.0107 -7.76525 -2.43132 25.1421 0.251341 4.98999 -0.453659 7.86613 -90.7785 11.132 -1.26449 -1.42744 -0.539015 -1.32611 -1.37041 -23.0702 -0.777114 -1.7414 -3.05758 -0.777116 -1.74141 94.6523 -25.3617 -98.6528 41.6405 -10.101 3.37989 -10.6478 -9.7508 -18.6611 -12.672 -0.232682 -3.12188 -87.1402 -43.879 81.9273 -16.5464 6.29292 -29.1111 14.4135 -0.815803 -29.9954 -0.799765 -0.122122 -6.70222 -7.90755 2.75473 2.02974 -14.5877 2.1955 4.30573 
-195.8 96.9679 176.121 -101.66 -46.9953 -99.0687 -172.198 0.469668 93.7612 -55.3711 18.3908 2.45034 61.8642 0.205094 -0.087218 9.57213 -11.1901 4.18569 174.722 5.44586 91.6343 -29.3858 -19.7967 -1.05873 70.708 -6.50102 -2.16499 23.7596 0.720921 5.30138 -0.83795 7.73306 -90.9298 11.3908 -2.10107 -1.64034 -0.279375 -2.17124 -1.54627 -22.8142 -1.51107 -2.19586 -2.80155 -1.51109 -2.19586 93.4723 -25.5477 -101.156 45.0405 -10.6627 7.16447 -8.88675 -10.8548 -14.2099 -12.5154 -0.207984 -3.35798 -86.5472 -44.0097 82.908 -23.1466 0.298303 -28.2613 16.2845 1.50839 -31.4549 -0.915453 -0.104384 -5.46027 -10.3242 4.80195 4.891 -14.614 4.1815 4.16416 
-191.706 96.061 172.387 -101.004 -45.3464 -98.555 -170.789 -10.0146 93.5816 -43.6176 22.9797 1.83289 66.4574 3.7312 -0.627623 15.328 -8.93252 5.49396 176.209 11.5967 92.0446 -33.6699 -20.9906 -1.9937 69.0382 -5.1348 -2.3921 23.4005 0.961873 4.97595 -1.16321 7.64836 -90.9569 11.5566 -2.76187 -1.62294 -0.112314 -2.83063 -1.49976 -22.6549 -2.14655 -2.37798 -2.64223 -2.14654 -2.37798 94.1321 -25.6536 -99.6963 47.5344 -11.1804 7.74691 -9.69149 -10.2092 -16.6965 -10.0416 -0.0303957 -5.02455 -87.1093 -45.9256 82.3561 -22.2467 3.90952 -24.7827 11.673 -4.90906 -32.1926 -2.17331 -0.0924192 -6.75366 -10.7939 6.32456 6.66296 -15.1347 5.54649 5.06274 
-185.59 95.083 167.039 -101.234 -46.4673 -99.4299 -169.562 -11.95 93.8515 -35.3453 22.9784 0.02118 71.4452 7.37183 -0.238594 30.788 -3.00346 9.50764 176.895 17.2247 91.227 -33.7874 -19.9509 -2.31377 65.4558 -2.28373 -1.47294 21.8234 1.56101 5.1296 -1.52403 7.79371 -90.8211 11.2678 -3.41505 -1.29597 -0.399134 -3.46878 -1.14426 -22.9563 -2.86767 -2.26294 -2.94365 -2.86767 -2.26294 94.35 -26.6119 -98.9493 48.8458 -9.52288 5.963 -12.1219 -9.27114 -22.9493 -10.672 -0.061024 -4.7331 -87.6683 -45.9235 81.4721 -20.3039 10.5758 -23.988 10.957 -5.17273 -28.3184 -3.08573 -0.0696683 -7.75258 -9.6322 6.93646 6.07338 -15.2586 6.06815 5.59212 
